
<global>
amp_veltrack=0
ampeg_release=0.35
</global>

<group>
group_label=PP
lpc_hicc1=42
lpc_locc1=0

<region>
hikey=a3
hivel=127
lokey=g#3
loop_end=248396
loop_mode=loop_continuous
loop_start=96174
loop_xfade=45666
lovel=1
lpc=lfFoQYAuGsLQrCtC1UK9wQFkGkCUWJNAU/iAv57qIcCyGrw/uL67P6u2ecAf04dAxL/ov6yJHsCdAMtATqzSwBpIlUDUYUHABCANQFaw4L08ASDAQyo4QOQL0b9AOxQ/
lpc_rms=-44.80
pitch_keycenter=a3
sample=Soloviolin1_trill_min3rd_PP_A3.opus
</region>

<region>
hikey=a4
hivel=127
lokey=g#4
loop_end=244324
loop_mode=loop_continuous
loop_start=94597
loop_xfade=44918
lovel=1
lpc=FwAXQfw3wcGvvuZBFHCxwaV7W0EjGhfBHMy5QLmCE8Bw0YE/uXosPz3mYMDXU2BAHOQqvVOSJ8BSlWpABatnwBL5VEAvCPW/4WuJvp64tz+TP72/DRKbP8QbkL+L4DU/
lpc_rms=-47.46
pitch_keycenter=a4
sample=Soloviolin1_trill_min3rd_PP_A4.opus
</region>

<region>
hikey=a5
hivel=127
lokey=g#5
loop_end=255389
loop_mode=loop_continuous
loop_start=98881
loop_xfade=46952
lovel=1
lpc=y021QIRmFMEUCftAS2tFwJi+9T4Sh8I9a5lvPwstjL/o2jM/03TtPqut6r6xkpA/YKxkvyDJmz9XsPg+6YXbv8ypS0BdggrAKMoPP0zTSD/FWBM9Dncyv2TqJT8vUww+
lpc_rms=-47.78
pitch_keycenter=a5
sample=Soloviolin1_trill_min3rd_PP_A5.opus
</region>

<region>
hikey=a6
hivel=127
lokey=g#6
loop_end=270886
loop_mode=loop_continuous
loop_start=107452
loop_xfade=51021
lovel=1
lpc=xkTQQG+wMcEr/jJBnXvewEWNc0DK8ce/vWnMP/jG2b+PyE5A9aPNv36mbz6l8CC/ZcamP+lEur+GESzAA2vtQE++AMF1OMVALLVRwBY3xj8u+Tm/zjPKP7tzW8CKGjRA
lpc_rms=-48.40
pitch_keycenter=a6
sample=Soloviolin1_trill_min3rd_PP_A6.opus
</region>

<region>
hikey=b3
hivel=127
lokey=a#3
loop_end=247271
loop_mode=loop_continuous
loop_start=95738
loop_xfade=45459
lovel=1
lpc=PwGKQWkeNMLSFUBCKXDEwVvh6j9ub6NAuKMDwPPE6b4x3TY+yDWePzktNMDKLlNAV9vKv8RvK8AyZd1AawjrwJA/pECVBG7A0UFUQFDo674VDxvAA72tP8gBrj3Wd6I+
lpc_rms=-42.38
pitch_keycenter=b3
sample=Soloviolin1_trill_min3rd_PP_B3.opus
</region>

<region>
hikey=b4
hivel=127
lokey=a#4
loop_end=237107
loop_mode=loop_continuous
loop_start=91803
loop_xfade=43591
lovel=1
lpc=VZxMQfHQAMJsaRVCa5XTwUdub0EM+0XBtQstQb1pvMAZdR1AiIJjPwZJUcAk51pAIEIswA1XKL+b+apAZWT7wH9G/EAKKJzA4vOeP3SpoD94rdu/d9/GP5VGIsDStwxA
lpc_rms=-42.63
pitch_keycenter=b4
sample=Soloviolin1_trill_min3rd_PP_B4.opus
</region>

<region>
hikey=b5
hivel=127
lokey=a#5
loop_end=287074
loop_mode=loop_continuous
loop_start=111149
loop_xfade=52777
lovel=1
lpc=9vnaQKVgUsEzyU9BbtUCwcpKlECdzTvAOrpWQOtGdMBESYhA9oS8v1zXGL+0wBI/6b1oP1Bb179ZrRtAByhQvxG9uTwJTh6/gMngP8ocg784I0O/65YWQJKR+L+PYMI+
lpc_rms=-46.38
pitch_keycenter=b5
sample=Soloviolin1_trill_min3rd_PP_B5.opus
</region>

<region>
hikey=E7
hivel=127
lokey=a#6
loop_end=287187
loop_mode=loop_continuous
loop_start=115283
loop_xfade=54740
lovel=1
lpc=cdkMQXPwWMETQjJBB5a9wL2yOEDXlAS+/ZaEvRcn2j9iLgu/xOgvP+tSjMAsQdlAJJETwXllCEGPrRjAH4Slv1YyIkDzQQLAEwkVP8JNd76YtOW+ZF4wPlFNbUAPoFnA
lpc_rms=-48.80
pitch_keycenter=B6
sample=Soloviolin1_trill_min3rd_PP_B6.opus
</region>

<region>
hikey=c#4
hivel=127
lokey=c4
loop_end=241557
loop_mode=loop_continuous
loop_start=93526
loop_xfade=44409
lovel=1
lpc=cLyAQcxCKMLNgDRCAJbAwQ67iEAK004/kwXTPxjLQsC8K44/LwYGQAjemcBf35BAGYSjvxxTEMDXMqdA/eqRwMnjAUBtRb2/uzEnQEkoD7//dxTA+Y/zPynsjL8J+/A+
lpc_rms=-42.68
pitch_keycenter=c#4
sample=Soloviolin1_trill_min3rd_PP_C#4.opus
</region>

<region>
hikey=c#5
hivel=127
lokey=c5
loop_end=289848
loop_mode=loop_continuous
loop_start=112223
loop_xfade=53287
lovel=1
lpc=C+bqQGGjgsHqoodBn1orwaitzEBjndHAhSCxQNuvLMCBlaw/UjaRPvcuMsCYzlJA5ryWv1tUxL9j/lZAz2MjwNgBlj8FNc28MqMBPbIdpL1S/qi/KV08QDdZRMCUF+E/
lpc_rms=-47.87
pitch_keycenter=c#5
sample=Soloviolin1_trill_min3rd_PP_C#5.opus
</region>

<region>
hikey=c#6
hivel=127
lokey=c6
loop_end=253971
loop_mode=loop_continuous
loop_start=98332
loop_xfade=46691
lovel=1
lpc=01GgQD5DCcHOHPNAZYthwARZ3z/EJoe/ugWHP4qcDL+uU0M+IkPTPugioT5VzGG/U/G5Pzpiob8bONI/POSUv+1Dgz9uSGq/3UAFPzypHD5PpSg/AulXwCBzSkCSS5e/
lpc_rms=-50.13
pitch_keycenter=c#6
sample=Soloviolin1_trill_min3rd_PP_C#6.opus
</region>

<region>
hikey=d#4
hivel=127
lokey=d4
loop_end=242690
loop_mode=loop_continuous
loop_start=93965
loop_xfade=44617
lovel=1
lpc=JJgUQcUGx8GdGulBvZ+Wwfe7AkFsBaDALIhvQF+7Mr/eQqi/PhImQM1nhMBJ6HNAmomVvm0+gcB038RAK4WMwJOWiz9NWhc/Vskgv2gxiz9ITyrAf2U5QLeR3L8gNy8/
lpc_rms=-49.07
pitch_keycenter=d#4
sample=Soloviolin1_trill_min3rd_PP_D#4.opus
</region>

<region>
hikey=d#5
hivel=127
lokey=d5
loop_end=286599
loop_mode=loop_continuous
loop_start=110965
loop_xfade=52690
lovel=1
lpc=YoPfQEwIdMGqsYNBgLA6wQoc8UC1HM3A1POoQD9bJMCPRog/L7pgP8Vg8r8TNr8/30Lmvl1dmL5pxNI/278MwP/UyT+qysW+ZXMfv9A8lj/NN+u/+WeRP9+JYD6p+d29
lpc_rms=-48.56
pitch_keycenter=d#5
sample=Soloviolin1_trill_min3rd_PP_D#5.opus
</region>

<region>
hikey=d#6
hivel=127
lokey=d6
loop_end=272094
loop_mode=loop_continuous
loop_start=105349
loop_xfade=50023
lovel=1
lpc=de1RQeRxwcE7SatBDJ0TwYWPSUC5AyDAQXdZQEJ3ZsDFVWJArZHdvvKusr6dgFI/a0dxPysF2L6SYoc+cqMuP3D3Ib/4+jq/SgWUQGYOLcGRXwRBgynEPzhRvMBlLD1A
lpc_rms=-44.67
pitch_keycenter=d#6
sample=Soloviolin1_trill_min3rd_PP_D#6.opus
</region>

<region>
hikey=f4
hivel=127
lokey=e4
loop_end=285254
loop_mode=loop_continuous
loop_start=110445
loop_xfade=52442
lovel=1
lpc=h+YjQY261ME2xvFBGuWTwWMe4EB3cpHAAPRkQI3V5r0lcCnASQZkQJSCl8DRtIhAXLudv31z1789HDhA00lWwCfZa0A9ax3ArheNP6jdED5aCgHA629SQN7CI8AUdXg/
lpc_rms=-49.19
pitch_keycenter=f4
sample=Soloviolin1_trill_min3rd_PP_F4.opus
</region>

<region>
hikey=f5
hivel=127
lokey=e5
loop_end=242064
loop_mode=loop_continuous
loop_start=93722
loop_xfade=44502
lovel=1
lpc=KdF8QKNT2cAeOatAvmfcvy60hj/M+fO/L0kJQP/8jr87f+Q+fu0qPqUUZb/OGIE/9SGEvVltAb7erHU/WXe7v8FknT8jUTA+AQckv+uXP76EI+E/akuOvwijP74wFx0/
lpc_rms=-49.33
pitch_keycenter=f5
sample=Soloviolin1_trill_min3rd_PP_F5.opus
</region>

<region>
hikey=f6
hivel=127
lokey=e6
loop_end=258572
loop_mode=loop_continuous
loop_start=100114
loop_xfade=47537
lovel=1
lpc=1QQVQZAfR8G/ZAlBbhwJP4bP87+6hZU+BN6hP2Z1br8ZsY4/iC0dPT+pz77hn0o/CVNmP5f4f74kcJk9pWSwvrmtLUBjf9bAq8kwQJY4+T8WdoTAPhshQKeByr92rqI/
lpc_rms=-45.45
pitch_keycenter=f6
sample=Soloviolin1_trill_min3rd_PP_F6.opus
</region>

<region>
hivel=127
key=g3
loop_end=241675
loop_mode=loop_continuous
loop_start=93572
loop_xfade=44430
lovel=1
lpc=QRlOQdfqCMKr8BZCTZqUwdgHxb/DFMhA0hJdv7QYCsCRQxW+Hl87QDTVh8D124dACNERwKPo0b/lMrdA5jXjwD8ZqUDAPC7A6auiP0ZTGj/bqAvAfgXNP45BKr/QLww/
lpc_rms=-47.16
sample=Soloviolin1_trill_min3rd_PP_G3.opus
</region>

<region>
hikey=g4
hivel=127
lokey=f#4
loop_end=249378
loop_mode=loop_continuous
loop_start=96554
loop_xfade=45847
lovel=1
lpc=zEVKQSA4D8IbGDBCQ1HswZ4hREFt58XAKAqDQFQwlT4hrEPAFvxEQLdDUsBNUB9AgxHgPsbFE8AYDX1Ao2HOwOs5xkDSHyXA9D/QvpOIAUD5qonAouLMQPO+t8BBkRxA
lpc_rms=-46.22
pitch_keycenter=g4
sample=Soloviolin1_trill_min3rd_PP_G4.opus
</region>

<region>
hikey=g5
hivel=127
lokey=f#5
loop_end=254165
loop_mode=loop_continuous
loop_start=98407
loop_xfade=46727
lovel=1
lpc=lQmEQMVI0sCA65JAKLb4v8jCB0BulgTAMFLnP49UlL/+yIo/x0nFPrdCrr+Wnow/NuS+vmuxbb3afJ4/1pSEv99cTD+ecGC+K3EUvwwyjj+DOgS/JLYuP2j5DL8AFBM/
lpc_rms=-47.82
pitch_keycenter=g5
sample=Soloviolin1_trill_min3rd_PP_G5.opus
</region>

<region>
hikey=g6
hivel=127
lokey=f#6
loop_end=302127
loop_mode=loop_continuous
loop_start=122059
loop_xfade=57957
lovel=1
lpc=tPyhQH8hB8EvsgZBTsWXwKVaM0D3+Gu/+8sJP5XFIr9c5gpAkvowvyo/8r7YU6g/bzhOv8+7Y7/CMj9ADmGkwGHsOUDT7QU/mbL9v84xuD63Jk4++JdOv5ahoT+1OMG/
lpc_rms=-51.75
pitch_keycenter=g6
sample=Soloviolin1_trill_min3rd_PP_G6.opus
</region>
</group>

<group>
group_label=MF
lpc_hicc1=84
lpc_locc1=43

<region>
hikey=a3
hivel=127
lokey=g#3
loop_end=256204
loop_mode=loop_continuous
loop_start=92097
loop_xfade=49232
lovel=1
lpc=NNJ2QQCANcIrUnBCInc1wvNIlEGjxHDA4TVOQP7sx8Dq79VA3a13wOUdL79WZSpApIAfP37xisB9VplAEBSpwJWn30BSLKjA2bVlvzxFskC8zUHAOasHwJvKOUCpV2K/
lpc_rms=-33.25
pitch_keycenter=a3
sample=Soloviolin1_trill_min3rd_MF_A3.opus
</region>

<region>
hikey=a4
hivel=127
lokey=g#4
loop_end=262733
loop_mode=loop_continuous
loop_start=94444
loop_xfade=50486
lovel=1
lpc=f0wdQTuJr8HHSbVBAbtzwZ/CB0GO0P3AxtrnQMqnjcCiJTlAAOe3v94j6z66sye+hwj9Pk676b9gFY1AjQGOwLNdL0DuNC2/Mlg3v8D9fD3pA94+tB0ZPhVkkb82qZI/
lpc_rms=-32.79
pitch_keycenter=a4
sample=Soloviolin1_trill_min3rd_MF_A4.opus
</region>

<region>
hikey=a5
hivel=127
lokey=g#5
loop_end=271519
loop_mode=loop_continuous
loop_start=94277
loop_xfade=50397
lovel=1
lpc=DaqYQC881MDBf61A0XDjv8zmhT8f0x6+6h3XPiZdNb7Ux1w/NflePzxCVr9I3SM/dIszP4XvaD4cWaQ+CGCxPkZa9z64Eka+XcPIPx3Ke79OGeY+lmuOP+sUlb+gaKc/
lpc_rms=-36.76
pitch_keycenter=a5
sample=Soloviolin1_trill_min3rd_MF_A5.opus
</region>

<region>
hikey=a6
hivel=127
lokey=g#6
loop_end=272273
loop_mode=loop_continuous
loop_start=112828
loop_xfade=60314
lovel=1
lpc=+CIJQbf6I8FA/whBBJn1vwz+hT3Jt1hA70Vrvgoplb9IDIJAEFq2PzEX8r+IhDe/KMQxQCmRdMAfyiA+dKlxQE8DxsCWDGhAt22sPuwfPsAwT00/isuVPwhVicBh00pA
lpc_rms=-36.42
pitch_keycenter=a6
sample=Soloviolin1_trill_min3rd_MF_A6.opus
</region>

<region>
hikey=b3
hivel=127
lokey=a#3
loop_end=260088
loop_mode=loop_continuous
loop_start=93493
loop_xfade=49978
lovel=1
lpc=djOTQVY+ScKe52dC8eUGwtlJv0AfMTE/R86uQCUkx8BW3xZAnzvDP4O4lcB4dotAEPKYv1AC6b/kWKBALhgBwcpCGkFRO+HAcQJPQA3agL+agdG/n6lVQNWRNcCBcak/
lpc_rms=-33.05
pitch_keycenter=b3
sample=Soloviolin1_trill_min3rd_MF_B3.opus
</region>

<region>
hikey=b4
hivel=127
lokey=a#4
loop_end=256599
loop_mode=loop_continuous
loop_start=92239
loop_xfade=49308
lovel=1
lpc=UMtIQb/d58FqQvFB/6uawSOSIUH/+QbBQ+HjQGWigcAseZVAz4V7wNdBMT4XoFpAuEmzwJKzGkA6P2tASsaYwDCsSUBZ6tK/jMfiPt+kwT99g0HAtdzYP5CKcb9SL7U/
lpc_rms=-31.92
pitch_keycenter=b4
sample=Soloviolin1_trill_min3rd_MF_B4.opus
</region>

<region>
hikey=b5
hivel=127
lokey=a#5
loop_end=266267
loop_mode=loop_continuous
loop_start=92538
loop_xfade=49468
lovel=1
lpc=drfEQF+mK8HWGRhBD/RzwJYkbz/GCBq/VfgBQOpS7r/A5v8/PLO0PyoIMcD0cwtANHmQPyOSIcAAWSxAQ5EcP2L+479PhNI/Ioo7P2WF9b8nG2I/uCD9P6fCO8B5wt0/
lpc_rms=-34.11
pitch_keycenter=b5
sample=Soloviolin1_trill_min3rd_MF_B5.opus
</region>

<region>
hikey=E7
hivel=127
lokey=a#6
loop_end=273705
loop_mode=loop_continuous
loop_start=92667
loop_xfade=49537
lovel=1
lpc=3h3gQAB10MAaHqNA4QfVv03rvj8PLx8//HN0P55blT9vRCA/EJTYP+AsmcABRrJAup3LwFwdfED8X6A9EIUcvx1NoD8KL3m/wLl2P1GRj7/Emuw+0GAuv1yZhUC/D/e/
lpc_rms=-38.76
pitch_keycenter=B6
sample=Soloviolin1_trill_min3rd_MF_B6.opus
</region>

<region>
hikey=c#4
hivel=127
lokey=c4
loop_end=264773
loop_mode=loop_continuous
loop_start=95177
loop_xfade=50878
lovel=1
lpc=4IqOQQq3PcIL8lJC8cvlwVc8FkCADGhApEEHQHTthMCadl1AgKIWvg8lycDrbfVAXRYXwMaUmsAeExVBcpQAwWqYrUBGATPAyTILQL8Lhr86oCzA2pWTQF7JicAovvE/
lpc_rms=-31.72
pitch_keycenter=c#4
sample=Soloviolin1_trill_min3rd_MF_C#4.opus
</region>

<region>
hikey=c#5
hivel=127
lokey=c5
loop_end=258259
loop_mode=loop_continuous
loop_start=92836
loop_xfade=49626
lovel=1
lpc=B8D0QBJvhcEsgIZBdW0uwevD2UA+8LvACzeaQLTlZMBuiH1AxUYvwAtzwb5flu4/th3GvyLQFr8BsUxAAggvwJtulj9BIBc8130kvo8H272okFc+FNUhP2g7mr/OwnU/
lpc_rms=-37.12
pitch_keycenter=c#5
sample=Soloviolin1_trill_min3rd_MF_C#5.opus
</region>

<region>
hikey=c#6
hivel=127
lokey=c6
loop_end=270173
loop_mode=loop_continuous
loop_start=114313
loop_xfade=61108
lovel=1
lpc=J83CQEWXDcGyJfdAtXn9vz724D+pxti/3KA4QLUx9r/zjQNAZR3KPTYkkT/W4r2/9uQNQMRGZb29ET8/vzwlP1JLID+nkYC/4S6sP2z/lD0qheY/WxudwBZskUBR9Oi/
lpc_rms=-37.21
pitch_keycenter=c#6
sample=Soloviolin1_trill_min3rd_MF_C#6.opus
</region>

<region>
hikey=d#4
hivel=127
lokey=d4
loop_end=254531
loop_mode=loop_continuous
loop_start=91495
loop_xfade=48910
lovel=1
lpc=dEgKQfM7scFqFcZByIRywXJRpkCY6TjANlp4QCz2DcAV76Q+Vyd8P3NTRcBxY5VAZYWJwA4ocD/urUJApnCDwPi/JkCjwWG/XiwAP9kIm752tyq/yOzBP6Eg3b8TA3o/
lpc_rms=-35.94
pitch_keycenter=d#4
sample=Soloviolin1_trill_min3rd_MF_D#4.opus
</region>

<region>
hikey=d#5
hivel=127
lokey=d5
loop_end=277161
loop_mode=loop_continuous
loop_start=116339
loop_xfade=62191
lovel=1
lpc=hc6sQG7VJcEmmxdBLwKywPBaVUBCUErAzIBbQHMmOcDcvB1AZkIEv8dWjb+fEuA/g6qGvzKgvr5togpA9rfhv1pqwz62orw+UiG+vYCKAL/vguA+zuwvvrHI8L1YbAQ/
lpc_rms=-40.79
pitch_keycenter=d#5
sample=Soloviolin1_trill_min3rd_MF_D#5.opus
</region>

<region>
hikey=d#6
hivel=127
lokey=d6
loop_end=275454
loop_mode=loop_continuous
loop_start=116513
loop_xfade=62284
lovel=1
lpc=v78JQT5QMcGF1P1AOZsUPFE3wr6SWGe+osUyQDT+Bj17i+Q/4hTcP//kqz7uYcs/kZaSPzv9wT8zNLM/gy5TP5tE8j5MypU/yeNsQGlZ5MDMBcJAja+VP6T5T8AUdlNA
lpc_rms=-34.49
pitch_keycenter=d#6
sample=Soloviolin1_trill_min3rd_MF_D#6.opus
</region>

<region>
hikey=f4
hivel=127
lokey=e4
loop_end=255809
loop_mode=loop_continuous
loop_start=91955
loop_xfade=49156
lovel=1
lpc=eZNdQW4yCsKNaRVC41Wmwc0DmEAdTWPAbsDfQCgZkcD3vQc//mTqP875mMAznu5AyKeswOcBtL9ZBtJA8IWhwHP7PT/tJjI/dxyFPxQPBcDZXjk/GyRaP3xB578qU8c/
lpc_rms=-32.47
pitch_keycenter=f4
sample=Soloviolin1_trill_min3rd_MF_F4.opus
</region>

<region>
hikey=f5
hivel=127
lokey=e5
loop_end=265614
loop_mode=loop_continuous
loop_start=105533
loop_xfade=56414
lovel=1
lpc=6FqwQBV+G8Hy6f1AY9wpwG/yrz8OyC3A9dxLQCPiBsBrGgxAEHsIwCCPzT/NC4u+LJocP0iUSb8HJwJAanq0vyGD8b2/Rv0/W03uv0UYJT+Os3A/zIcAv4AMsL6YyWc/
lpc_rms=-37.22
pitch_keycenter=f5
sample=Soloviolin1_trill_min3rd_MF_F5.opus
</region>

<region>
hikey=f6
hivel=127
lokey=e6
loop_end=277959
loop_mode=loop_continuous
loop_start=94960
loop_xfade=50763
lovel=1
lpc=RXucQJJd3MBPDNtAMAKNvzrbPr/NXwxAu5AqP1BXHL8BSA9A/IkYvgLlMT+kJpU/w1JJPyfVGD/kcnI967SrP1ysgT/oK2DAbeCYQAHgJcDxwq09izHSP74lyL+OknA/
lpc_rms=-36.86
pitch_keycenter=f6
sample=Soloviolin1_trill_min3rd_MF_F6.opus
</region>

<region>
hivel=127
key=g3
loop_end=257482
loop_mode=loop_continuous
loop_start=92556
loop_xfade=49477
lovel=1
lpc=DnsqQdyk2sGGOfJBIJmKwc9HKEAI0klAerPiv24ifb/hgsU/1uSyPxZSs8DzvLRAb4OEv9WMc8AEGsNAkPy2wOq8gEB2bfe/z7uIP8zz5L5NOYa/R7IaQNLDIMAtr54/
lpc_rms=-35.20
sample=Soloviolin1_trill_min3rd_MF_G3.opus
</region>

<region>
hikey=g4
hivel=127
lokey=f#4
loop_end=266533
loop_mode=loop_continuous
loop_start=95810
loop_xfade=51216
lovel=1
lpc=G4U1QWnn7cHZggVC9NmbwRCLnEAUv/e/tmqNQPXELcAvdJG+bunSPnwIED/6i66934QXwEUmE0BK7iVABtLOwOAsqEAv9aW/i2ycvqt5p70omJy/UrKDQNcroMAFzBhA
lpc_rms=-33.59
pitch_keycenter=g4
sample=Soloviolin1_trill_min3rd_MF_G4.opus
</region>

<region>
hikey=g5
hivel=127
lokey=f#5
loop_end=269897
loop_mode=loop_continuous
loop_start=93776
loop_xfade=50130
lovel=1
lpc=rcigQG7J3sDyrKRAU0nJv1Qo2z6DAiW+grbLPzPfsL8qcuo/GOU7vuOIaT362A6/IpdfP/tis70GhFM/MBgdPtXTQj/WONa+7qTPPoktbL2odkk/30rivgbggj/qyKy+
lpc_rms=-35.30
pitch_keycenter=g5
sample=Soloviolin1_trill_min3rd_MF_G5.opus
</region>

<region>
hikey=g6
hivel=127
lokey=f#6
loop_end=272228
loop_mode=loop_continuous
loop_start=92606
loop_xfade=49504
lovel=1
lpc=3YqeQG80y8C2rLxAyV0Ov/Cuk7+632pAZtmYv7ijhD8mjRJAMoV+PZE0eT9qJX8/Hf9fPytCg79xe25A8c+MwFXrH0DFnwRAmtB+wP63YkBOzMC/qWo3v4cs6T9dfNi/
lpc_rms=-37.76
pitch_keycenter=g6
sample=Soloviolin1_trill_min3rd_MF_G6.opus
</region>
</group>

<group>
group_label=FF
lpc_hicc1=127
lpc_locc1=85

<region>
hikey=a3
hivel=127
lokey=g#3
loop_end=269691
loop_mode=loop_continuous
loop_start=96945
loop_xfade=51823
lovel=1
lpc=Hz0zQWv43MEceO1B7+OJwRfNikDYqpe/4lo9QBJ5RcBqVJU/axAzP+DmJ8CtbkxADCfpv4++sb/GpZZAPkmVwFOXTUCBCsm/1LJvP4Wajb6SZpw+CX+2v5nAqT+g/9++
lpc_rms=-23.35
pitch_keycenter=a3
sample=Soloviolin1_trill_min3rd_FF_A3.opus
</region>

<region>
hikey=a4
hivel=127
lokey=g#4
loop_end=260501
loop_mode=loop_continuous
loop_start=93641
loop_xfade=50058
lovel=1
lpc=S5y1QPtRL8HFNRdBfK+YwG+jQkDrwYLAAraDQNX7Y8CX/RVAQ4ubvlJrib/FlEc/lKkAP6G8vL84Q7o/tayWvpUi9r74NtM8oBRjP10dmb8v6HE/exQnv9rEeT/Bc1i+
lpc_rms=-25.17
pitch_keycenter=a4
sample=Soloviolin1_trill_min3rd_FF_A4.opus
</region>

<region>
hikey=a5
hivel=127
lokey=g#5
loop_end=261940
loop_mode=loop_continuous
loop_start=94158
loop_xfade=50334
lovel=1
lpc=CqFcQHzmj8ARJ4FAXNJFv7Z9rD7SUAM/4otTP+U+hL5GHNo+dlyrP9LgXL/qrq8/zWkBPdM6CD9FlRI/DFK3PSPTqT/D8i6/0b6oP+y1fL4sygA/e+cJP/T6Hr82PH8/
lpc_rms=-25.45
pitch_keycenter=a5
sample=Soloviolin1_trill_min3rd_FF_A5.opus
</region>

<region>
hikey=a6
hivel=127
lokey=g#6
loop_end=258314
loop_mode=loop_continuous
loop_start=92855
loop_xfade=49637
lovel=1
lpc=gtUnQZYE4cCt5g9BAxcxQAxMs78IPPlAgQbEP0PGMT8idM9AnKcSQP7u2T94efA+bJaUPwoKPT+/fgXB3jnEQB1Iw8DMLiTAxZEQQMTKu8CNKbi/j32+Pth7mMDnkRXA
lpc_rms=-22.06
pitch_keycenter=a6
sample=Soloviolin1_trill_min3rd_FF_A6.opus
</region>

<region>
hikey=b3
hivel=127
lokey=a#3
loop_end=261553
loop_mode=loop_continuous
loop_start=94019
loop_xfade=50260
lovel=1
lpc=f4MwQdmr38EenvNBv4eJwW2jVECPQZC+JgBPQNA5YcD9vZY/f1nJP5O/d8BLOoFAsioIwBxNx7/0ip1A3MKWwP14RECDOeC/vhyqP1cwfr8PT8k+SRbavgnEfj5+31c+
lpc_rms=-23.14
pitch_keycenter=b3
sample=Soloviolin1_trill_min3rd_FF_B3.opus
</region>

<region>
hikey=b4
hivel=127
lokey=a#4
loop_end=256684
loop_mode=loop_continuous
loop_start=92269
loop_xfade=49324
lovel=1
lpc=cED3QHbyecEyHlVBhZ23wKgE5D9EDzXAUE1IQE4F8r/b7GM/Qp6oP2tiHsBr3OE/VIymvzhoKj96dKc/U2nSv/AWxj4em9Q+hfY+Pl1px7/I0u0/5vJkv3FQGL8un6Q/
lpc_rms=-24.83
pitch_keycenter=b4
sample=Soloviolin1_trill_min3rd_FF_B4.opus
</region>

<region>
hikey=b5
hivel=127
lokey=a#5
loop_end=252084
loop_mode=loop_continuous
loop_start=90616
loop_xfade=48440
lovel=1
lpc=WPagQPoY8sA6FstA0GYSwM14pz86CtS/VaQ3QDBMVr/qX4a9IwDUP5TcM784xd0+UkWCPqKRyj5pRAY/WvBkPP69Mr5Nx54/UbWQvqXmib/BqW0/rvxaP7UVir8/T9w9
lpc_rms=-24.16
pitch_keycenter=b5
sample=Soloviolin1_trill_min3rd_FF_B5.opus
</region>

<region>
hikey=E7
hivel=127
lokey=a#6
loop_end=256641
loop_mode=loop_continuous
loop_start=92254
loop_xfade=49316
lovel=1
lpc=0VqVQHGt7b/nK1BAQUr5PG5i1z9pc5A/W8nTPwIIUD9rh/U/edICQI6Aq7/SLpM/3vtAv4RCBcAtN7s/cEXev2QJID+mPI+/C6pMPi+Rl78Cq0E+ZTfvv6+EnD4YAZ0/
lpc_rms=-30.59
pitch_keycenter=B6
sample=Soloviolin1_trill_min3rd_FF_B6.opus
</region>

<region>
hikey=c#4
hivel=127
lokey=c4
loop_end=264934
loop_mode=loop_continuous
loop_start=95235
loop_xfade=50909
lovel=1
lpc=5lorQWG+28FdRvNBcSuKwWpRQkC3I4u+lQNrQOYYjcCkggpAiKSKP4AehsAjkI5AueO9vzT7LcDjea9AdjecwM3TWEAOlfu/tsGtP/gHQL9+aYw9f3WcOmCv/r7S1uI+
lpc_rms=-23.42
pitch_keycenter=c#4
sample=Soloviolin1_trill_min3rd_FF_C#4.opus
</region>

<region>
hikey=c#5
hivel=127
lokey=c5
loop_end=256865
loop_mode=loop_continuous
loop_start=92334
loop_xfade=49359
lovel=1
lpc=95iiQGopFcFXe/NA7kphwAco4z+SRRLA3ofFP5N1O78BiTo//pm+PX/gRb8aD1g/rhEXPUbgHr+iu50/GgmBv+YW8T4Gq7i+pzezPfyPMr5A+xE/5ogkPXCN+L6izBI/
lpc_rms=-30.55
pitch_keycenter=c#5
sample=Soloviolin1_trill_min3rd_FF_C#5.opus
</region>

<region>
hikey=c#6
hivel=127
lokey=c6
loop_end=268214
loop_mode=loop_continuous
loop_start=96414
loop_xfade=51540
lovel=1
lpc=zr2cQBL8yMCE0bVAnv45v99eiz8onk+/2LD3P1XdjT6VBRC/fnEjQKYSpL/6ypM/364VPznsjT8sCpa+kZ/dP38wQz6Oswu+FmNCPz+j9j6qvm0/2fgwwBZPOUAN/a2/
lpc_rms=-26.03
pitch_keycenter=c#6
sample=Soloviolin1_trill_min3rd_FF_C#6.opus
</region>

<region>
hikey=d#4
hivel=127
lokey=d4
loop_end=269921
loop_mode=loop_continuous
loop_start=97027
loop_xfade=51868
lovel=1
lpc=mVzqQJZnkMGyDppBkt0dwYD19z5hf4s/xzSFP1SPor+L+1c+J3aKP66i6L8cF9M/dMeTv+nkQL8/Vz9ANR1ZwMqJ3j/OT7e9JZsWP/jspb/jsvY+ZkUuP/M5ir+1AzA/
lpc_rms=-28.76
pitch_keycenter=d#4
sample=Soloviolin1_trill_min3rd_FF_D#4.opus
</region>

<region>
hikey=d#5
hivel=127
lokey=d5
loop_end=256145
loop_mode=loop_continuous
loop_start=92076
loop_xfade=49220
lovel=1
lpc=jJt8QDTAzMCEFIdAbKpBvx14HD+aMg/AlEJKQOz9/b+77DM/BeAovuThlT5k8fi+UA+AP4mKH7/Qstc++QTMO8acEL9KUT8/bmqKvQGrbL6FRdQ+1j5GvXXquL4hCFA/
lpc_rms=-31.61
pitch_keycenter=d#5
sample=Soloviolin1_trill_min3rd_FF_D#5.opus
</region>

<region>
hikey=d#6
hivel=127
lokey=d6
loop_end=285496
loop_mode=loop_continuous
loop_start=113088
loop_xfade=60453
lovel=1
lpc=dl+7QG4I5sAZksRAsW/gvmRCO7+zK9M/UCKUP3f3dz+KK0c/B64PQGlDFj3dl+s/tLAgP4VkDEDSCUI+j0EBQCwN576/owlA9w67P2d1bcASF6NADJ+dv8xN1b7zG/4/
lpc_rms=-25.45
pitch_keycenter=d#6
sample=Soloviolin1_trill_min3rd_FF_D#6.opus
</region>

<region>
hikey=f4
hivel=127
lokey=e4
loop_end=256147
loop_mode=loop_continuous
loop_start=92076
loop_xfade=49221
lovel=1
lpc=v0g+QfT/5cHhSfBBuIVvwdpcAj/wcIY+4oiNQPAUnsAiABdAPyAAQI9Ay8DhEOtAkhaQwMOgtr++asxAiHa1wGQPxz8cfog/3kupPzswgcBatgVAUFlJP/zK9b91tL8/
lpc_rms=-26.06
pitch_keycenter=f4
sample=Soloviolin1_trill_min3rd_FF_F4.opus
</region>

<region>
hikey=f5
hivel=127
lokey=e5
loop_end=257257
loop_mode=loop_continuous
loop_start=92475
loop_xfade=49434
lovel=1
lpc=gFddQMLxnsB/q2RAI80vvx0avD5yMdO+wKU9P2Zmc7/oN6g/Wytavm/QpL69M9o+MXoVPz+5a78FP78/IsIqvxKmRj4wzwU/tv9Gvne0I72JrEA/MBI/vyfz5j41w/E+
lpc_rms=-26.57
pitch_keycenter=f5
sample=Soloviolin1_trill_min3rd_FF_F5.opus
</region>

<region>
hikey=f6
hivel=127
lokey=e6
loop_end=261105
loop_mode=loop_continuous
loop_start=93858
loop_xfade=50174
lovel=1
lpc=iOS6QHKqxMDOLtFAuTSfPrbKED/Osw1AkNatPzoZuD0kXRBA63kTPwvQKj9ghgJAZipAP/CBkT/OjAk/3k2pP47M2z9jLmLAjftEQKtpI74gvS/AYOoIQL2v7L9iag0/
lpc_rms=-25.24
pitch_keycenter=f6
sample=Soloviolin1_trill_min3rd_FF_F6.opus
</region>

<region>
hivel=127
key=g3
loop_end=266384
loop_mode=loop_continuous
loop_start=95756
loop_xfade=51188
lovel=1
lpc=rE4OQf8EscGvMcRBvUprwQ/SaEBcfS+//EokQOozPMCQo+k/YCghP5HsYcBMPFlAGMNsv+LI/7/2vHZAt7dkwKoZGUCNsn6/K2GNP5ml1L9MFBM/IXtYPxdbr78RQW4/
lpc_rms=-25.78
sample=Soloviolin1_trill_min3rd_FF_G3.opus
</region>

<region>
hikey=g4
hivel=127
lokey=f#4
loop_end=270828
loop_mode=loop_continuous
loop_start=97353
loop_xfade=52042
lovel=1
lpc=NYUWQaSbusH5PMZBUZxNwTG2oD9O/NK+lQ5tQPhRKsCiMHM/fM8WvnBRlb+NuDFAyAh8wCQAYz+d7n9ANpehwO9zJ0B2Hyo+eorlPnLF1b8loRi9S4oCQNQYIsAvMb0/
lpc_rms=-25.52
pitch_keycenter=g4
sample=Soloviolin1_trill_min3rd_FF_G4.opus
</region>

<region>
hikey=g5
hivel=127
lokey=f#5
loop_end=281927
loop_mode=loop_continuous
loop_start=101343
loop_xfade=54175
lovel=1
lpc=/uBlQBV0o8DwjH5AZlS7v2LHVz+64Hq/ppSlP0TGub62uJ0+VhERP5JxwL6KipW+UoFvPx9hSz7gN/e+lnN7P12d8zxN7L69hykdPhB+v71Ht3s+05/RPutCnj3S+N48
lpc_rms=-27.19
pitch_keycenter=g5
sample=Soloviolin1_trill_min3rd_FF_G5.opus
</region>

<region>
hikey=g6
hivel=127
lokey=f#6
loop_end=260706
loop_mode=loop_continuous
loop_start=93715
loop_xfade=50097
lovel=1
lpc=622CQCpyS8C2xDZApMAEQJQRNT54ht0/gXfmPxV2zD8BdNQ/YsMwQHLfvD/g5xxA4/gPQAWMkj/KbVVAHybrPUO6Vz5Ic39AXvNvv2r9Uz9SKLM/X5MMP2yphj7HyQs/
lpc_rms=-27.78
pitch_keycenter=g6
sample=Soloviolin1_trill_min3rd_FF_G6.opus
</region>
</group>